<?xml version="1.0" encoding="UTF-8"?>
<svg width="6px" height="10px" viewBox="0 0 6 10" version="1.1" xmlns="http://www.w3.org/2000/svg" xmlns:xlink="http://www.w3.org/1999/xlink">
    <!-- Generator: Sketch 58 (84663) - https://sketch.com -->
    <title>noun_Arrow_1920908</title>
    <desc>Created with Sketch.</desc>
    <g id="Biz-Look" stroke="none" stroke-width="1" fill="none" fill-rule="evenodd">
        <g id="Auth---Light" transform="translate(-750.000000, -615.000000)" fill="#3081E3">
            <g id="noun_Arrow_1920908" transform="translate(753.500000, 620.000000) rotate(-90.000000) translate(-753.500000, -620.000000) translate(749.000000, 617.000000)">
                <path d="M0.0470859371,0.978943924 C0.0470859371,0.731831865 0.141257816,0.494224128 0.32018438,0.304137923 C0.687454703,-0.066530166 1.29015476,-0.066530166 1.65742513,0.304137923 L4.52025015,3.18394381 L7.38307544,0.2946336 C7.75034542,-0.0760344783 8.35304587,-0.0760344783 8.72031584,0.2946336 C9.08758635,0.665301689 9.08758635,1.27357755 8.72031584,1.6442456 L5.18887035,5.20836169 C5.00994381,5.3889437 4.77451439,5.48398684 4.52025015,5.48398684 C4.26598618,5.48398684 4.0305565,5.37943942 3.85162995,5.20836169 L0.32018438,1.65374988 C0.141257816,1.46366376 0.0470859371,1.2165517 0.0470859371,0.978943924 Z" id="Shape"></path>
            </g>
        </g>
    </g>
</svg>