<?xml version="1.0" encoding="UTF-8"?>
<svg width="16px" height="25px" viewBox="0 0 16 25" version="1.1" xmlns="http://www.w3.org/2000/svg" xmlns:xlink="http://www.w3.org/1999/xlink">
    <!-- Generator: Sketch 58 (84663) - https://sketch.com -->
    <title>noun_Arrow_1920908</title>
    <desc>Created with Sketch.</desc>
    <g id="Biz-Look" stroke="none" stroke-width="1" fill="none" fill-rule="evenodd" opacity="0.857676625">
        <g id="Home---Light" transform="translate(-184.000000, -348.000000)" fill="#323742">
            <g id="noun_Arrow_1920908" transform="translate(192.000000, 360.500000) rotate(90.000000) translate(-192.000000, -360.500000) translate(180.000000, 353.000000)">
                <path d="M0.124242425,2.66379312 C0.124242425,1.99137932 0.37272727,1.34482762 0.844848457,0.82758622 C1.81393933,-0.181034481 3.40424241,-0.181034481 4.37333342,0.82758622 L11.9272724,8.66379312 L19.4812121,0.801724117 C20.4503021,-0.206896556 22.0406062,-0.206896556 23.0096962,0.801724117 C23.9787875,1.81034482 23.9787875,3.46551733 23.0096962,4.47413791 L13.6915144,14.1724135 C13.2193933,14.6637931 12.5981819,14.9224139 11.9272724,14.9224139 C11.2563636,14.9224139 10.6351515,14.6379311 10.1630304,14.1724135 L0.844848457,4.49999991 C0.37272727,3.98275873 0.124242425,3.31034493 0.124242425,2.66379312 Z" id="Shape"></path>
            </g>
        </g>
    </g>
</svg>