<?xml version="1.0" encoding="UTF-8"?>
<svg width="80px" height="29px" viewBox="0 0 80 29" version="1.1" xmlns="http://www.w3.org/2000/svg" xmlns:xlink="http://www.w3.org/1999/xlink">
    <!-- Generator: Sketch 58 (84663) - https://sketch.com -->
    <title>Worbli logo 08-2019</title>
    <desc>Created with Sketch.</desc>
    <g id="Page-1" stroke="none" stroke-width="1" fill="none" fill-rule="evenodd">
        <g id="Worbli-logo-08-2019" fill="#FFFFFF" fill-rule="nonzero">
            <g id="Group" transform="translate(0.000000, 20.000000)">
                <polygon id="Path" points="14.5877875 0.146938776 17.1381443 0.146938776 13.4299762 8.85489796 10.8796193 8.85489796 8.57985726 2.57265306 6.24900872 8.85489796 3.71387787 8.85489796 0.0215701824 0.146938776 2.68104679 0.146938776 5.05884219 6.78979592 7.42141158 0.146938776 9.84615385 0.146938776 12.2398097 6.78979592"></polygon>
                <path d="M29.3722443,0.595102041 C30.2693101,0.985102041 30.9760508,1.52204082 31.4924663,2.20591837 C32.0088818,2.88979592 32.2670896,3.65081633 32.2670896,4.48836735 C32.2670896,5.32591837 32.0088818,6.08877551 31.4924663,6.77755102 C30.9760508,7.46571429 30.2693101,8.00693878 29.3722443,8.40061224 C28.4751784,8.79428571 27.4791435,8.99142857 26.3841396,8.99142857 C25.2891356,8.99142857 24.2931007,8.79428571 23.3960349,8.40061224 C22.4989691,8.00693878 21.7922284,7.46755102 21.2758128,6.78367347 C20.7593973,6.09979592 20.5011895,5.3344898 20.5011895,4.48836735 C20.5011895,3.65081633 20.7593973,2.88979592 21.2758128,2.20591837 C21.7922284,1.52204082 22.4964314,0.985102041 23.3877875,0.595102041 C24.279778,0.205102041 25.2783505,0.0104081633 26.3841396,0.0104081633 C27.4791435,0.0104081633 28.4751784,0.205102041 29.3722443,0.595102041 Z M24.7257732,2.09387755 C24.2042823,2.33877551 23.7919112,2.67244898 23.4899286,3.0955102 C23.1873117,3.51857143 23.0363204,3.98326531 23.0363204,4.48897959 C23.0363204,5.00326531 23.1898493,5.47163265 23.4981761,5.89469388 C23.8058684,6.3177551 24.2176051,6.65326531 24.7340206,6.90244898 C25.2504362,7.15163265 25.8106265,7.27591837 26.4158604,7.27591837 C27.02046,7.27591837 27.5762094,7.15346939 28.0818398,6.90918367 C28.5874703,6.66489796 28.9890563,6.32877551 29.2865979,5.90142857 C29.5841396,5.47469388 29.7325932,5.00387755 29.7325932,4.48959184 C29.7325932,3.98387755 29.5841396,3.51918367 29.2865979,3.09612245 C28.9890563,2.67306122 28.5874703,2.33938776 28.0818398,2.0944898 C27.5755749,1.85020408 27.02046,1.72775282 26.4158604,1.72775282 C25.8106265,1.72714286 25.2472641,1.84959184 24.7257732,2.09387755 Z" id="Shape"></path>
                <path d="M44.2195083,5.98163265 C44.8869151,5.73306122 45.3950833,5.37 45.7446471,4.89306122 C46.0942109,4.41612245 46.2686757,3.84183673 46.2686757,3.17020408 C46.2686757,2.20836735 45.8772403,1.46387755 45.095004,0.937346939 C44.3127676,0.410816327 43.2069786,0.14755102 41.7782712,0.14755102 L37.022046,0.14755102 L37.022046,1.7755102 L39.9238699,1.7755102 L39.9238699,1.77673469 L41.7776368,1.77673469 C42.4659794,1.77673469 42.9950833,1.89918367 43.3655829,2.14346939 C43.7354481,2.38836735 43.9206979,2.75081633 43.9206979,3.23204082 C43.9206979,3.72122449 43.7354481,4.0922449 43.3655829,4.34510204 C42.9950833,4.59795918 42.4659794,4.72469388 41.7776368,4.72469388 L39.9238699,4.72469388 L39.9238699,4.72653061 L37.022046,4.72653061 L37.022046,8.85489796 L39.4937351,8.85489796 L39.4937351,6.36673469 L41.7776368,6.36673469 L42.0123711,6.36673469 L43.7487708,8.85489796 L46.549088,8.85489796 L44.2195083,5.98163265 Z" id="Path"></path>
                <path d="M60.2093577,4.9922449 C59.8026963,4.59857143 59.2444092,4.34755102 58.5351308,4.23979592 C59.119429,4.1155102 59.5806503,3.88102041 59.919429,3.53693878 C60.2582078,3.19285714 60.4275971,2.78877551 60.4275971,2.32408163 C60.4275971,1.65244898 60.0780333,1.12163265 59.37954,0.731632653 C58.6804124,0.341632653 57.726249,0.146938776 56.5164155,0.146938776 L51.4785091,0.146938776 L51.4785091,1.75408163 L53.9501983,1.75408163 L53.9501983,1.75163265 L56.390801,1.75163265 C56.8602696,1.74367347 57.2275971,1.82204082 57.4940523,1.98795918 C57.7598731,2.15387755 57.8931007,2.38591837 57.8931007,2.68469388 C57.8931007,2.99142857 57.7598731,3.23020408 57.4940523,3.39979592 C57.2282316,3.57 56.8602696,3.65510204 56.390801,3.65510204 L53.9501983,3.65510204 L53.9501983,3.65081633 L51.4785091,3.65081633 L51.4785091,8.85489796 L56.6883426,8.85489796 C57.9609833,8.85489796 58.9671689,8.63938776 59.7081681,8.2077551 C60.4485329,7.77673469 60.819034,7.1877551 60.819034,6.44142857 C60.8196669,5.86959184 60.616019,5.38653061 60.2093577,4.9922449 Z M57.768755,6.97040816 C57.4350515,7.15714286 56.9757335,7.25020408 56.3920698,7.25020408 L53.9514671,7.25020408 L53.9514671,5.18510204 L56.3920698,5.18510204 C56.976368,5.17714286 57.4350515,5.26408163 57.768755,5.44653061 C58.1024584,5.62897959 58.2693101,5.87755102 58.2693101,6.19285714 C58.2693101,6.52469388 58.1024584,6.78367347 57.768755,6.97040816 Z" id="Shape"></path>
                <polygon id="Path" points="65.7478192 0.146938776 68.2195083 0.146938776 68.2195083 7.13816327 72.9129262 7.13816327 72.9129262 8.85489796 65.7471848 8.85489796 65.7471848 0.146938776"></polygon>
                <polygon id="Path" points="77.5124504 0.146938776 77.5124504 2.52857143 79.9796987 0.146938776"></polygon>
                <polygon id="Path" points="77.5124504 4.55816327 77.5124504 8.85489796 79.984774 8.85489796 79.984774 2.1722449"></polygon>
            </g>
            <g id="Group" transform="translate(26.000000, 0.000000)">
                <path d="M7.36552036,10.0549398 C7.36995475,10.0632932 7.37248869,10.0729317 7.37819005,10.0793574 C7.39782805,10.1012048 7.41873303,10.1211245 7.43900452,10.1423293 C8.24669683,10.9616064 9.05502262,11.7815261 9.86271493,12.6008032 C9.88298643,12.6213655 9.9038914,12.6419277 9.92479638,12.6618474 C9.93366516,12.6702008 9.94950226,12.6695582 9.95963801,12.6599197 C9.98307692,12.6374297 10.0058824,12.6149398 10.0286878,12.5918072 C10.4271493,12.1876305 10.8249774,11.7840964 11.2234389,11.3799197 C11.2481448,11.3548594 11.2696833,11.3253012 11.3032579,11.3098795 C11.3121267,11.3156627 11.3209955,11.3201606 11.3273303,11.3265863 C11.8550226,11.86249 12.3827149,12.3983936 12.9097738,12.9342972 C12.9116742,12.9362249 12.9129412,12.9400803 12.9142081,12.9426506 C12.9154751,12.9458635 12.9154751,12.9490763 12.9161086,12.955502 C12.9097738,12.9638554 12.9021719,12.9741365 12.8939367,12.9831325 C12.8736652,13.0043373 12.8533937,13.0248996 12.8324887,13.0454618 C11.9019005,13.9893976 10.9706787,14.9339759 10.0400905,15.8779116 C10.019819,15.8984739 9.99828054,15.9190361 9.97864253,15.940241 C9.96470588,15.9556627 9.94570136,15.9595181 9.92733032,15.9653012 C9.91276018,15.9697992 9.90135747,15.9665863 9.8918552,15.9582329 C9.86841629,15.9363855 9.84561086,15.9126104 9.82280543,15.8894779 C8.97393665,15.0284337 8.12506787,14.1673896 7.2761991,13.3063454 C4.89366516,10.8896386 2.51049774,8.47228916 0.128597285,6.05493976 C0.0950226244,6.02088353 0.0513122172,5.99518072 0.0361085973,5.94570281 C0.0576470588,5.90393574 0.0943891403,5.87694779 0.126063348,5.84481928 C0.601176471,5.362249 1.07692308,4.87967871 1.55266968,4.39710843 C1.57294118,4.37654618 1.59321267,4.35534137 1.61475113,4.33542169 C1.62361991,4.32706827 1.63565611,4.32064257 1.64705882,4.31293173 C1.66542986,4.32963855 1.68253394,4.34441767 1.69837104,4.36048193 C2.19945701,4.86811245 2.6999095,5.37574297 3.20036199,5.88401606 C3.22063348,5.90457831 3.23837104,5.92835341 3.25737557,5.9502008 C3.27447964,5.96947791 3.29095023,5.98939759 3.30868778,6.00803213 C3.39927602,6.10056225 3.49049774,6.19309237 3.58171946,6.28497992 C4.26461538,6.97767068 4.94687783,7.67036145 5.63040724,8.36240964 C5.72669683,8.46008032 5.70072398,8.46136546 5.79638009,8.36433735 C6.61167421,7.53799197 7.42886878,6.71421687 8.23972851,5.88401606 C8.77438914,5.33654618 9.30904977,4.78971888 9.84941176,4.24803213 C10.5361086,3.55919679 11.2158371,2.86457831 11.9,2.17317269 C12.581629,1.48369478 13.260724,0.792931727 13.9417195,0.102811245 C14.0278733,0.0154216867 14.0076018,0.0141365462 14.0943891,0.101526104 C15.0433484,1.06409639 15.9923077,2.02666667 16.941267,2.98923695 C16.9615385,3.0097992 16.98181,3.03100402 17.001448,3.05220884 C17.0103167,3.06184739 17.0096833,3.07726908 17.000181,3.0875502 C16.9938462,3.09461847 16.9875113,3.10232932 16.980543,3.10875502 C16.9647059,3.12481928 16.9488688,3.14088353 16.9330317,3.15759036 C16.4503167,3.64722892 15.9682353,4.1362249 15.4855204,4.62586345 C15.4652489,4.6464257 15.4443439,4.66698795 15.4234389,4.6875502 C15.4101357,4.69975904 15.3949321,4.69975904 15.3809955,4.68626506 C15.3575566,4.6637751 15.3347511,4.64064257 15.3119457,4.61751004 C14.9090498,4.20883534 14.5061538,3.80016064 14.1032579,3.39148594 C14.0804525,3.36835341 14.0576471,3.34522088 14.0342081,3.32273092 C14.0215385,3.31052209 14.0063348,3.31180723 13.9923982,3.32594378 C13.9784615,3.33943775 13.9645249,3.35293173 13.9512217,3.36706827 C13.1663348,4.16321285 12.3782805,4.95742972 11.5965611,5.75742972 C11.020724,6.3460241 10.441086,6.93076305 9.86461538,7.51871486 C9.45095023,7.92032129 9.0518552,8.3373494 8.64579186,8.74730924 C8.24162896,9.1546988 7.84,9.56401606 7.43710407,9.97269076 C7.41303167,10.0003213 7.38452489,10.0228112 7.36552036,10.0549398 Z" id="Path"></path>
                <path d="M10.8914932,8.66570281 C10.9047964,8.65092369 10.9168326,8.63614458 10.9307692,8.6226506 C11.4502262,8.09638554 11.9690498,7.57076305 12.4885068,7.04449799 C12.4929412,7.04 12.499276,7.03871486 12.5075113,7.03485944 C12.5163801,7.04192771 12.5271493,7.04963855 12.5366516,7.05799197 C12.5556561,7.07598394 12.5733937,7.09461847 12.5917647,7.11325301 C13.5793665,8.11502008 14.5676018,9.11678715 15.5552036,10.1191968 C15.5868778,10.1513253 15.621086,10.1815261 15.6438914,10.222008 C15.6527602,10.2387149 15.6692308,10.2515663 15.6825339,10.2650602 C15.7186425,10.3023293 15.7553846,10.3389558 15.7914932,10.3762249 C16.5244344,11.1196787 17.2573756,11.8631325 17.9903167,12.6065863 C18.0131222,12.6297189 18.0359276,12.6528514 18.0593665,12.6753414 C18.0663348,12.6817671 18.0758371,12.6843373 18.0872398,12.6901205 C18.1106787,12.6676305 18.1341176,12.6457831 18.1562896,12.6226506 C18.3564706,12.4195984 18.5566516,12.2165462 18.7574661,12.013494 C19.3675113,11.3946988 19.9775566,10.7759036 20.5876018,10.1571084 C20.6104072,10.1339759 20.6332127,10.1108434 20.6553846,10.0870683 C20.6718552,10.0697189 20.6705882,10.0549398 20.6528507,10.0363052 C20.6325792,10.0151004 20.6123077,9.99453815 20.5920362,9.97333333 C20.1460633,9.52096386 19.7000905,9.06859438 19.2541176,8.61558233 C19.2313122,8.5924498 19.2097738,8.5686747 19.1888688,8.54361446 C19.1857014,8.53975904 19.1869683,8.53140562 19.1882353,8.52562249 C19.1901357,8.51983936 19.1945701,8.5146988 19.1990045,8.50955823 C19.2097738,8.4973494 19.2211765,8.4864257 19.2325792,8.47485944 C19.7285973,7.97172691 20.2246154,7.46795181 20.721267,6.96546185 C20.7415385,6.9448996 20.7573756,6.91919679 20.7909502,6.9102008 C20.799819,6.91662651 20.8105882,6.92369478 20.819457,6.93269076 C20.840362,6.95261044 20.8606335,6.97381526 20.880905,6.99502008 C21.3268778,7.44738956 21.7728507,7.89975904 22.219457,8.35212851 C22.2422624,8.37526104 22.2663348,8.39646586 22.2904072,8.41767068 C22.2942081,8.42088353 22.3030769,8.42024096 22.3081448,8.41767068 C22.3163801,8.41317269 22.3246154,8.40738956 22.3309502,8.40032129 C22.3518552,8.37975904 22.3721267,8.35919679 22.3923982,8.33799197 C23.1437104,7.57590361 23.8943891,6.81445783 24.6457014,6.05236948 C24.6843439,6.01317269 24.7255204,5.97654618 24.7552941,5.92899598 C24.7673303,5.91036145 24.7857014,5.89558233 24.8015385,5.87951807 C25.2975566,5.37638554 25.7935747,4.87261044 26.2902262,4.36947791 C26.3085973,4.35148594 26.3276018,4.33413655 26.3466063,4.31614458 C26.3573756,4.32128514 26.3668778,4.32385542 26.3732127,4.32963855 C26.3947511,4.34955823 26.4143891,4.37076305 26.4352941,4.3913253 C26.918009,4.88096386 27.4000905,5.36995984 27.8828054,5.85959839 C27.8967421,5.87373494 27.9100452,5.88722892 27.9239819,5.90136546 C27.9721267,5.95084337 27.9721267,5.95084337 27.9239819,6.00096386 C27.9011765,6.02409639 27.878371,6.04722892 27.8555656,6.07036145 C24.6260633,9.34618474 21.3965611,12.622008 18.1670588,15.8971888 C18.0701357,15.995502 18.098009,15.9967871 18.0017195,15.8991165 C16.7043439,14.5837751 15.4069683,13.2677912 14.1095928,11.9518072 C14.0709502,11.9126104 14.0342081,11.8714859 13.9892308,11.8393574 C13.9708597,11.826506 13.9569231,11.8078715 13.9404525,11.7918072 C13.4419005,11.2861044 12.9433484,10.7810442 12.4454299,10.2746988 C12.3839819,10.2123695 12.3269683,10.1461847 12.2674208,10.0819277 C12.241448,10.053012 12.2161086,10.0234538 12.1888688,9.99582329 C11.7815385,9.5826506 11.3742081,9.16947791 10.9668778,8.75566265 C10.9466063,8.7351004 10.9257014,8.71453815 10.9060633,8.69269076 C10.8997285,8.68626506 10.8971946,8.67662651 10.8914932,8.66570281 Z" id="Path"></path>
                <path d="M22.1428054,3.32722892 C22.1111312,3.34714859 22.0889593,3.37542169 22.0636199,3.40048193 C21.799457,3.66779116 21.5352941,3.93574297 21.2717647,4.20369478 C20.7827149,4.69975904 20.2930317,5.19646586 19.8039819,5.69253012 C19.7653394,5.73172691 19.7222624,5.7664257 19.6975566,5.81783133 C19.6918552,5.82875502 19.681086,5.837751 19.6715837,5.84674699 C19.6513122,5.86795181 19.6304072,5.88851406 19.6101357,5.90907631 C18.6314027,6.90184739 17.6526697,7.89461847 16.6739367,8.88674699 C16.6511312,8.90987952 16.6283258,8.93301205 16.6048869,8.95550201 C16.598552,8.96192771 16.5884163,8.96385542 16.5776471,8.96963855 C16.5611765,8.95421687 16.5440724,8.93943775 16.5282353,8.92337349 C16.0252489,8.41317269 15.5222624,7.90297189 15.019276,7.39277108 C15.0059729,7.37927711 14.9926697,7.36449799 14.981267,7.34907631 C14.9749321,7.34136546 14.9755656,7.33044177 14.9831674,7.32273092 C15.0028054,7.3015261 15.0230769,7.28032129 15.0433484,7.25911647 C16.4249774,5.85767068 17.8059729,4.4562249 19.1876018,3.05542169 C19.6563801,2.55742972 20.1441629,2.07807229 20.6230769,1.58971888 C21.099457,1.10393574 21.578371,0.620080321 22.0566516,0.134939759 C22.0838914,0.107309237 22.1092308,0.077751004 22.140905,0.0539759036 C22.1510407,0.0578313253 22.1611765,0.0597590361 22.1681448,0.0655421687 C22.1871493,0.0828915663 22.2055204,0.101526104 22.2232579,0.120160643 C23.2152941,1.1264257 24.2079638,2.13333333 25.2,3.13959839 C25.2139367,3.15373494 25.2272398,3.16722892 25.240543,3.18136546 C25.2677828,3.21028112 25.2684163,3.21991968 25.2437104,3.24626506 C25.2348416,3.25590361 25.2259729,3.2648996 25.2164706,3.27389558 C24.7179186,3.77959839 24.2193665,4.2853012 23.7208145,4.79036145 C23.7049774,4.8064257 23.6878733,4.82120482 23.6701357,4.83534137 C23.6663348,4.83855422 23.6574661,4.83791165 23.6523982,4.83534137 C23.6441629,4.83148594 23.6359276,4.82506024 23.6295928,4.81799197 C23.6061538,4.79550201 23.5833484,4.77236948 23.5611765,4.74923695 C23.119638,4.30136546 22.6780995,3.85349398 22.2365611,3.40562249 C22.2137557,3.38248996 22.1909502,3.35935743 22.1675113,3.33751004 C22.1611765,3.33236948 22.1510407,3.33108434 22.1428054,3.32722892 Z" id="Path"></path>
                <path d="M8.84153846,3.08305221 C8.8238009,3.10232932 8.81176471,3.11710843 8.79782805,3.13124498 C8.28090498,3.65493976 7.7639819,4.17799197 7.24705882,4.70104418 C7.24515837,4.70297189 7.24135747,4.70425703 7.23882353,4.70554217 C7.23628959,4.70682731 7.23312217,4.70746988 7.22932127,4.70811245 C7.19891403,4.68947791 7.17674208,4.66120482 7.1520362,4.63614458 C6.74470588,4.22297189 6.33737557,3.8097992 5.93004525,3.39726908 C5.90723982,3.37413655 5.88316742,3.35228916 5.85909502,3.33108434 C5.85529412,3.32787149 5.84642534,3.32851406 5.84072398,3.3297992 C5.83502262,3.33172691 5.82932127,3.3362249 5.82488688,3.34008032 C5.80144796,3.36257028 5.77864253,3.38570281 5.7558371,3.40883534 C5.30733032,3.86313253 4.85945701,4.31807229 4.41095023,4.77236948 C4.32352941,4.86104418 4.34190045,4.86040161 4.25828054,4.77558233 C3.76923077,4.27951807 3.27954751,3.78345382 2.79049774,3.28738956 C2.7721267,3.26875502 2.75438914,3.25012048 2.73728507,3.23084337 C2.72968326,3.22313253 2.73031674,3.21349398 2.73538462,3.20449799 C2.74045249,3.19614458 2.74678733,3.18907631 2.75375566,3.18200803 C2.7759276,3.1588755 2.79873303,3.13574297 2.82153846,3.11261044 C3.79773756,2.12240964 4.77330317,1.13220884 5.75013575,0.142650602 C5.86542986,0.0263453815 5.83058824,0.025060241 5.9439819,0.139437751 C6.88153846,1.0897992 7.81909502,2.04080321 8.7560181,2.99180723 C8.7838914,3.01879518 8.81239819,3.04514056 8.84153846,3.08305221 Z" id="Path"></path>
            </g>
        </g>
    </g>
</svg>