<svg version="1" xmlns="http://www.w3.org/2000/svg" width="680" height="680" viewBox="0 0 510.000000 510.000000"><path d="M0 255v255h510V0H0v255zm191.5-53.1c3.4 3.5 3.7 4.3 2.5 5.4-.8.7-5.3 5-10.1 9.5l-8.5 8.2-8.7-8.1-8.6-8-8.9 8.5c-4.9 4.7-9.3 8.6-9.8 8.6s-5.1-4.2-10.2-9.3l-9.3-9.3 19.1-18.8 19.2-18.7 14.6 14c8.1 7.6 16.5 15.8 18.7 18zm81-12l16 16.1-9.7 9.7-9.7 9.6-8.6-8.2-8.7-8.2-8.7 8.3c-4.7 4.5-23.1 22.4-40.9 39.7l-32.3 31.5 15.8 15.2 15.8 15.2 8.3-8.1 8.3-8 10 9.9 9.9 9.9-17.9 17.9c-9.9 9.8-18.4 17.7-18.9 17.5-.5-.2-28-26.9-61.2-59.3l-60.2-58.9 9.4-9.4c5.1-5.1 9.9-9.2 10.5-9.1.7.2 6.8 5.7 13.5 12.3 6.8 6.6 17.8 17.4 24.5 23.9l12.2 11.9 41.3-40.4c22.7-22.2 45.6-44.5 50.8-49.6l9.4-9.1 2.6 1.8c1.4 1 9.7 9.1 18.5 17.9zm105.8-1.1l18.7 18.7-6.7 6.5c-3.8 3.6-8.3 7.9-10.1 9.5l-3.2 2.9-9-8.9-8.9-8.8-17.8 17.1c-9.8 9.4-25 24.3-33.8 33.1-8.8 8.9-16.4 16.1-17 16.1-.6 0-5.3-4.3-10.5-9.5l-9.5-9.5 6-5.9c25-24.7 82-80.1 82.5-80.1.3 0 9 8.4 19.3 18.8zm42 43l9.8 9.9-60.6 59.2-60.6 59.3-21.7-21.1c-11.9-11.5-31.8-30.9-44.2-42.9l-22.5-22 9.5-9.6c5.2-5.3 9.8-9.6 10.3-9.6s16 14.8 34.5 33c18.4 18.1 33.8 33 34.1 33 .4 0 7.6-7 16.1-15.6l15.5-15.6-9.3-8.6-9.2-8.7 10-10 10-10 8.8 8.8c4.8 4.8 9.1 8.7 9.6 8.7.4 0 11.8-10.8 25.3-24 13.6-13.2 24.7-24 24.7-24 .1 0 4.5 4.4 9.9 9.8z"/></svg>