<?xml version="1.0" encoding="UTF-8"?>
<svg width="145px" height="27px" viewBox="0 0 145 27" version="1.1" xmlns="http://www.w3.org/2000/svg" xmlns:xlink="http://www.w3.org/1999/xlink">
    <!-- Generator: Sketch 58 (84663) - https://sketch.com -->
    <title>Logo</title>
    <desc>Created with Sketch.</desc>
    <g id="Logo" stroke="none" stroke-width="1" fill="none" fill-rule="evenodd">
        <g id="Group" transform="translate(0.000000, 3.704000)" fill="#3D4956">
            <g id="logo" transform="translate(0.000000, 1.296000)">
                <path d="M9.0595778,11.4064612 C10.0454934,12.3295384 11.031409,13.2526155 12.0173246,14.1756927 L12.0942251,14.2449237 C12.1022398,14.2511134 12.1446345,14.2252672 12.2214092,14.1673851 L13.6825354,12.7993846 C13.7091462,12.7668951 13.7423079,12.7396097 13.780141,12.7190771 C14.4584507,13.342154 15.1042253,13.9476923 15.747042,14.5550772 C15.747042,14.5550772 15.7125353,14.589231 15.643522,14.6575387 L12.2450708,17.8864621 L12.168169,17.9556931 C12.1505853,17.9706483 12.1292006,17.9811361 12.1060565,17.9861537 C12.0975152,17.9907706 12.0551209,17.9649248 11.9788737,17.9086162 L8.8614089,14.9815386 L0.115352117,6.79015379 C0.0739436654,6.75138448 0.0207042259,6.72369218 0,6.66553874 C0.0311059917,6.62258076 0.069003332,6.58429776 0.112394368,6.55200018 C0.692112704,5.99815378 1.27380284,5.45353833 1.85746484,4.91815382 C1.88112675,4.89323092 1.90774653,4.87107687 1.9343663,4.84615396 C1.99492542,4.8382608 2.01568412,4.85677094 2.03492968,4.87661565 L3.874648,6.59630774 L3.94267621,6.67107699 L4.0047887,6.7375386 L4.33901432,7.05046146 L6.84718343,9.40707736 C6.96549333,9.51784654 6.93295815,9.52061539 7.05126805,9.40707736 C8.04802829,8.4738465 9.04774638,7.54338449 10.0415494,6.60461538 C10.6952113,5.9870773 11.3488739,5.36953868 12.0114089,4.7575383 C12.8514089,3.97938471 13.6825354,3.19569233 14.5195777,2.41476935 L17.0188741,0.0747692281 C17.125352,-0.0249230767 17.0987325,-0.0249230767 17.2052116,0.0747692281 C18.36662,1.16030772 19.5280285,2.24769241 20.6894369,3.33692319 C20.7160564,3.35907697 20.7397192,3.38400014 20.7633808,3.40615392 C20.7711454,3.41395343 20.7632582,3.4361073 20.7397192,3.47261553 L20.6805633,3.52523073 L18.9059155,5.18676911 L18.829015,5.25600012 C18.8057632,5.26341768 18.760411,5.23757147 18.6929586,5.17846148 L17.2140852,3.79384629 L17.1312677,3.71630766 C17.1213504,3.70739896 17.0868433,3.72309128 17.0277465,3.76338461 C16.0664793,4.66338494 15.1022542,5.56061534 14.1469015,6.46338452 C13.4429578,7.12800009 12.7330984,7.78707688 12.0261969,8.45169245 C11.5204234,8.90584616 11.0323945,9.37661568 10.5473248,9.83630764 L9.06845075,11.2209234 C9.03232195,11.2457315 8.99954658,11.2745578 8.97084522,11.3067696 L9.0595778,11.4064612 Z" id="Shape"></path>
                <path d="M14,9.91261551 C14.0142225,9.89561628 14.030062,9.87985934 14.0473239,9.8655386 L15.9550704,8.08215392 C15.9550704,8.08215392 15.9550704,8.08215392 15.9757747,8.08215392 C15.9888853,8.08984398 16.0008246,8.09915923 16.0112678,8.10984611 L16.0792959,8.17076921 L19.7054929,11.5658463 C19.7458531,11.601257 19.7824986,11.6402035 19.8149297,11.6821542 C19.828248,11.7006791 19.8441651,11.7174448 19.8622536,11.7319999 L19.9953523,11.8566156 L22.6869019,14.3766152 L22.7697187,14.4541541 C22.7802534,14.4618449 22.7923196,14.4674932 22.8052117,14.4707691 L22.8909864,14.3959998 L23.6245072,13.7064619 L25.8635217,11.6101537 L25.9463379,11.529846 C25.9670426,11.5104615 25.9670426,11.4938462 25.9463379,11.4744617 C25.9232186,11.4491255 25.8985286,11.4250839 25.8723947,11.4024615 C25.3281696,10.8901539 24.780986,10.3806154 24.233803,9.86830776 L24.1539441,9.78800015 C24.1509743,9.78087726 24.1509743,9.77296896 24.1539441,9.76584608 L24.1687329,9.74923072 C24.1810226,9.73496493 24.1949041,9.72196813 24.2101411,9.71046169 C24.8174653,9.14000011 25.424789,8.5713845 26.0321127,8.00461546 C26.05337,7.97703553 26.0819047,7.95509008 26.1149301,7.94092301 L26.1504225,7.96584623 L26.2273242,8.03784617 L27.8659165,9.55815394 C27.8922955,9.58521282 27.9209809,9.61021847 27.9516913,9.63292323 L27.9723947,9.63292323 L28.0019725,9.61353833 C28.0285917,9.59138465 28.0522537,9.56646142 28.0759156,9.54430774 L30.8236628,6.96061547 C30.8734325,6.91927922 30.9180792,6.87283347 30.9567615,6.82215391 C30.9739526,6.80237355 30.9927405,6.78385766 31.0129585,6.76676933 C31.6222537,6.19999999 32.2295786,5.63138463 32.8349307,5.06092308 L32.9059166,5 C32.9176474,5.00386048 32.9286339,5.00947134 32.9384517,5.01661538 L33.0123948,5.08584615 L34.7870431,6.74738462 C34.8047893,6.76399997 34.8225355,6.77784617 34.8373243,6.79446152 C34.8964799,6.8498461 34.8964799,6.8498461 34.8373243,6.90800004 C34.7781701,6.96615379 34.7811273,6.95784611 34.7545081,6.9855385 C30.8108455,10.6778462 26.8583098,14.3784616 22.8969016,18.0873845 C22.7785918,18.198154 22.8111269,18.198154 22.6957749,18.0873845 L17.9367607,13.6261543 C17.8918144,13.5794683 17.842303,13.5368213 17.7888735,13.498769 C17.7681691,13.498769 17.7504227,13.4627695 17.7297186,13.4461538 C17.1204228,12.8756926 16.5101409,12.3043074 15.8988733,11.7319999 C15.8249297,11.6627697 15.7539438,11.5880004 15.6829577,11.5132307 C15.6504225,11.4827691 15.6208451,11.4467693 15.5853522,11.4163077 L14.0916901,10.0150768 C14.0650704,9.99292312 14.0414085,9.96799989 14.0177465,9.94584622 C14.0095323,9.93598283 14.0034994,9.92468599 14,9.91261551 Z" id="Shape"></path>
                <path d="M27.7689949,3.70523076 C27.7333211,3.72849273 27.7014399,3.7564764 27.6743465,3.78830753 L26.7042058,4.69661517 L24.9088533,6.37753798 C24.8587643,6.41803619 24.8158387,6.46570315 24.7816704,6.51876875 L24.7491351,6.5519997 L24.6722336,6.62123059 L21.0785714,9.9858458 L20.9927967,10.0633843 L20.9602615,10.0772305 L20.8981487,10.0273843 L19.0525148,8.29661511 C19.0344993,8.28199049 19.0185913,8.26523476 19.0051909,8.24676899 C18.9982697,8.23867523 18.9982697,8.22717039 19.0051909,8.21907663 C19.0283103,8.19374062 19.0530008,8.16969902 19.0791345,8.14707675 C20.767022,6.56307688 22.4578674,4.97999992 24.1516703,3.39784616 C24.725473,2.84399994 25.3199802,2.29015373 25.9056138,1.73630767 L27.662516,0.0913846161 C27.6941272,0.0581701119 27.7287643,0.0275933048 27.7660365,0 L27.7985718,0 L27.8666001,0.0609230727 L31.5075868,3.47261534 L31.5578678,3.51969216 C31.5933615,3.55292311 31.5933615,3.56399999 31.5578678,3.59446134 L31.5223749,3.62492299 L29.6944875,5.33907705 L29.6323752,5.38892317 L29.6087127,5.38892317 L29.5820934,5.3695384 L29.4963187,5.29199992 C28.9580085,4.78523053 28.4167415,4.28123074 27.8754737,3.77446135 C27.8488536,3.74953829 27.8222343,3.72184594 27.7926566,3.69692288 L27.7689949,3.70523076 Z" id="Shape"></path>
                <path d="M11.4649858,3.43557973 L11.4117465,3.49096416 L9.50104219,5.25773341 L9.50104219,5.25773341 L9.50104219,5.25773341 C9.46666597,5.23300699 9.43496477,5.20518102 9.40639422,5.17465645 L7.91273239,3.79004107 L7.824,3.715272 L7.80329569,3.715272 C7.79661969,3.71293663 7.78926738,3.71293663 7.78259138,3.715272 C7.75597149,3.74019502 7.72639425,3.76511804 7.69977457,3.79281026 L6.05230963,5.33250247 C5.94583072,5.43219521 5.96949282,5.43219521 5.8659716,5.33250247 C5.27442224,4.77865664 4.67597158,4.21834872 4.07061944,3.65157969 C4.04744183,3.6317261 4.0257035,3.61044827 4.00554902,3.58788738 C3.99815033,3.57891491 3.99815033,3.56639812 4.00554902,3.55742566 L4.02921099,3.53250263 C4.05583071,3.50757961 4.08245043,3.4798874 4.11202789,3.45496406 L7.69385899,0.0986565736 C7.83583072,-0.0314972673 7.79442254,-0.0342664965 7.93343626,0.0986565736 L11.3732959,3.32204106 C11.4062607,3.35813333 11.4368794,3.39604789 11.4649858,3.43557973 L11.4649858,3.43557973 Z" id="Shape"></path>
            </g>
            <path d="M50.404,4.669 C50.6800014,4.669 50.856333,4.79166544 50.933,5.037 L53.9,14.49 C53.9460002,14.5973339 54.0226661,14.651 54.13,14.651 L54.222,14.651 C54.3600007,14.651 54.4366666,14.5973339 54.452,14.49 L57.557,5.773 C57.7103341,5.35899793 57.890499,5.0715008 58.0975,4.9105 C58.304501,4.74949919 58.6149979,4.669 59.029,4.669 L61.766,4.669 C62.1800021,4.669 62.490499,4.74949919 62.6975,4.9105 C62.904501,5.0715008 63.0846659,5.35899793 63.238,5.773 L66.32,14.49 C66.3353334,14.5973339 66.4119993,14.651 66.55,14.651 L66.642,14.651 C66.7493339,14.651 66.8259998,14.5973339 66.872,14.49 L69.862,5.037 C69.9080002,4.79166544 70.0843318,4.669 70.391,4.669 L72.99,4.669 C73.1893343,4.669 73.3158331,4.71883283 73.3695,4.8185 C73.4231669,4.91816716 73.4270002,5.05233249 73.381,5.221 L69.885,15.87 C69.7009991,16.4526696 69.4825013,16.8359991 69.2295,17.02 C68.9764987,17.2040009 68.6046691,17.296 68.114,17.296 L65.216,17.296 C64.8173313,17.296 64.5106677,17.192501 64.296,16.9855 C64.0813323,16.778499 63.8743343,16.4066693 63.675,15.87 L60.639,7.475 C60.6083332,7.38299954 60.5393339,7.337 60.432,7.337 L60.294,7.337 C60.1713327,7.337 60.1023334,7.38299954 60.087,7.475 L57.074,15.87 C56.8746657,16.4066693 56.6676677,16.778499 56.453,16.9855 C56.2383323,17.192501 55.9316687,17.296 55.533,17.296 L52.635,17.296 C52.1443309,17.296 51.7725013,17.2040009 51.5195,17.02 C51.29461,16.8564436 51.096982,16.5353931 50.9266113,16.0568402 L47.414,5.221 C47.3679998,5.05233249 47.3679998,4.91816716 47.414,4.8185 C47.4600002,4.71883283 47.5903323,4.669 47.805,4.669 L50.404,4.669 Z M87.3419999,4.669 C88.3693384,4.669 89.235663,4.75716578 89.9409999,4.9335 C90.6463368,5.10983421 91.2098311,5.38583145 91.6314999,5.7615 C92.0531687,6.13716854 92.355999,6.62016371 92.5399999,7.2105 C92.7240008,7.80083628 92.8159999,8.50999586 92.8159999,9.338 L92.8159999,12.65 C92.8159999,13.4780041 92.7240008,14.1871637 92.5399999,14.7775 C92.355999,15.3678363 92.0531687,15.8508315 91.6314999,16.2265 C91.2098311,16.6021685 90.6463368,16.8743325 89.9409999,17.043 C89.235663,17.2116675 88.3693384,17.296 87.3419999,17.296 L80.8329999,17.296 C79.790328,17.296 78.9201701,17.2116675 78.2224999,17.043 C77.5248297,16.8743325 76.9651687,16.6021685 76.5434999,16.2265 C76.1218311,15.8508315 75.8190008,15.3678363 75.6349999,14.7775 C75.450999,14.1871637 75.3589999,13.4780041 75.3589999,12.65 L75.3589999,9.338 C75.3589999,8.50999586 75.450999,7.80083628 75.6349999,7.2105 C75.8190008,6.62016371 76.1218311,6.13716854 76.5434999,5.7615 C76.9651687,5.38583145 77.5248297,5.10983421 78.2224999,4.9335 C78.9201701,4.75716578 79.790328,4.669 80.8329999,4.669 L87.3419999,4.669 Z M78.6479999,12.075 C78.6479999,12.5656691 78.6863329,12.9719984 78.7629999,13.294 C78.839667,13.6160016 78.9738323,13.8728324 79.1654999,14.0645 C79.3571675,14.2561676 79.6139983,14.3941662 79.9359999,14.4785 C80.2580015,14.5628338 80.6643308,14.605 81.1549999,14.605 L87.0199999,14.605 C87.5260024,14.605 87.9399983,14.5628338 88.2619999,14.4785 C88.5840015,14.3941662 88.8408323,14.2561676 89.0324999,14.0645 C89.2241675,13.8728324 89.3583329,13.6160016 89.4349999,13.294 C89.511667,12.9719984 89.5499999,12.5656691 89.5499999,12.075 L89.5499999,9.89 C89.5499999,9.41466429 89.511667,9.01600161 89.4349999,8.694 C89.3583329,8.37199839 89.2241675,8.11133433 89.0324999,7.912 C88.8408323,7.71266567 88.5840015,7.57466705 88.2619999,7.498 C87.9399983,7.42133295 87.5260024,7.383 87.0199999,7.383 L81.1549999,7.383 C80.6643308,7.383 80.2580015,7.42133295 79.9359999,7.498 C79.6139983,7.57466705 79.3571675,7.71266567 79.1654999,7.912 C78.9738323,8.11133433 78.839667,8.37199839 78.7629999,8.694 C78.6863329,9.01600161 78.6479999,9.41466429 78.6479999,9.89 L78.6479999,12.075 Z M108.088,4.669 C108.364001,4.669 108.502,4.80699862 108.502,5.083 L108.502,7.015 C108.502,7.29100138 108.364001,7.429 108.088,7.429 L101.97,7.429 C101.479331,7.429 101.073001,7.47116624 100.751,7.5555 C100.428998,7.63983375 100.172167,7.77783237 99.9804998,7.9695 C99.7888322,8.16116762 99.6546669,8.42183168 99.5779998,8.7515 C99.5013327,9.08116831 99.4629998,9.48366429 99.4629998,9.959 L99.4629998,16.79 C99.4629998,17.127335 99.2943348,17.296 98.9569998,17.296 L96.7029998,17.296 C96.3503314,17.296 96.1739998,17.127335 96.1739998,16.79 L96.1739998,9.338 C96.1739998,8.50999586 96.2659989,7.80083628 96.4499998,7.2105 C96.6340007,6.62016371 96.936831,6.13716854 97.3584998,5.7615 C97.7801686,5.38583145 98.3398296,5.10983421 99.0374998,4.9335 C99.73517,4.75716578 100.605328,4.669 101.648,4.669 L108.088,4.669 Z M113.769,0.046 C114.106335,0.046 114.275,0.21466498 114.275,0.552 L114.275,4.669 L122.9,4.669 C123.927338,4.669 124.793663,4.75716578 125.499,4.9335 C126.204337,5.10983421 126.767831,5.38583145 127.1895,5.7615 C127.611168,6.13716854 127.913999,6.62016371 128.098,7.2105 C128.282001,7.80083628 128.374,8.50999586 128.374,9.338 L128.374,12.65 C128.374,13.4780041 128.282001,14.1871637 128.098,14.7775 C127.913999,15.3678363 127.611168,15.8508315 127.1895,16.2265 C126.767831,16.6021685 126.204337,16.8743325 125.499,17.043 C124.793663,17.2116675 123.927338,17.296 122.9,17.296 L116.46,17.296 C115.417328,17.296 114.54717,17.2116675 113.8495,17.043 C113.15183,16.8743325 112.592168,16.6021685 112.1705,16.2265 C111.748831,15.8508315 111.446001,15.3678363 111.262,14.7775 C111.077999,14.1871637 110.986,13.4780041 110.986,12.65 L110.986,0.552 C110.986,0.21466498 111.162331,0.046 111.515,0.046 L113.769,0.046 Z M114.275,7.429 L114.275,12.006 C114.275,12.4966691 114.313333,12.9029984 114.39,13.225 C114.466667,13.5470016 114.600832,13.8038324 114.7925,13.9955 C114.984167,14.1871676 115.240998,14.3251662 115.563,14.4095 C115.885001,14.4938338 116.291331,14.536 116.782,14.536 L122.578,14.536 C123.084002,14.536 123.497998,14.4938338 123.82,14.4095 C124.142001,14.3251662 124.398832,14.1871676 124.5905,13.9955 C124.782167,13.8038324 124.916333,13.5470016 124.993,13.225 C125.069667,12.9029984 125.108,12.4966691 125.108,12.006 L125.108,9.959 C125.108,9.48366429 125.069667,9.08116831 124.993,8.7515 C124.916333,8.42183168 124.782167,8.16116762 124.5905,7.9695 C124.398832,7.77783237 124.142001,7.63983375 123.82,7.5555 C123.497998,7.47116624 123.084002,7.429 122.578,7.429 L114.275,7.429 Z M134.584,0.046 C134.921335,0.046 135.09,0.21466498 135.09,0.552 L135.09,16.79 C135.09,17.127335 134.921335,17.296 134.584,17.296 L132.33,17.296 C131.992665,17.296 131.824,17.127335 131.824,16.79 L131.824,0.552 C131.824,0.21466498 131.992665,0.046 132.33,0.046 L134.584,0.046 Z M141.507,4.669 C141.844335,4.669 142.012999,4.84533157 142.012999,5.198 L142.012999,16.79 C142.012999,17.127335 141.844335,17.296 141.507,17.296 L139.252999,17.296 C138.915664,17.296 138.746999,17.127335 138.746999,16.79 L138.746999,5.198 C138.746999,4.84533157 138.915664,4.669 139.252999,4.669 L141.507,4.669 Z M141.507,-3.55271368e-15 C141.844335,-3.55271368e-15 142.012999,0.16866498 142.012999,0.506 L142.012999,2.691 C142.012999,3.04366843 141.844335,3.22 141.507,3.22 L139.252999,3.22 C138.900331,3.22 138.723999,3.04366843 138.723999,2.691 L138.723999,0.506 C138.723999,0.16866498 138.900331,-3.55271368e-15 139.252999,-3.55271368e-15 L141.507,-3.55271368e-15 Z" id="worbli" fill-rule="nonzero"></path>
            <path d="M44.0000229,4.29601526 L50.0000229,4.29601526 C50.5523076,4.29601526 51.0000229,4.74373051 51.0000229,5.29601526 L51.0000229,6.29601526 C51.0000229,6.84830001 50.5523076,7.29601526 50.0000229,7.29601526 L44.0000229,7.29601526 C43.4477381,7.29601526 43.0000229,6.84830001 43.0000229,6.29601526 L43.0000229,5.29601526 C43.0000229,4.74373051 43.4477381,4.29601526 44.0000229,4.29601526 Z" id="Rectangle-12"></path>
        </g>
    </g>
</svg>