<?xml version="1.0" encoding="UTF-8"?>
<svg width="145px" height="27px" viewBox="0 0 145 27" version="1.1" xmlns="http://www.w3.org/2000/svg" xmlns:xlink="http://www.w3.org/1999/xlink">
    <!-- Generator: Sketch 58 (84663) - https://sketch.com -->
    <title>Logo Dark</title>
    <desc>Created with Sketch.</desc>
    <g id="Logo-Dark" stroke="none" stroke-width="1" fill="none" fill-rule="evenodd">
        <path d="M9.09029708,16.927202 C10.0795566,17.8924205 11.068816,18.8576391 12.0580755,19.8228576 L12.1352369,19.8952492 C12.1432788,19.9017215 12.1858172,19.8746953 12.2628523,19.8141707 L13.7289342,18.3837167 C13.7556352,18.3497439 13.7889094,18.3212129 13.8268707,18.2997429 C14.5074811,18.9512652 15.1554459,19.5844482 15.8004428,20.2195621 C15.8004428,20.2195621 15.7658191,20.2552752 15.6965717,20.3267014 L12.2865942,23.7030353 L12.2094316,23.7754269 C12.1917882,23.7910649 12.170331,23.8020314 12.1471084,23.8072781 C12.1385381,23.8121058 12.096,23.78508 12.0194942,23.7262007 L8.89145606,20.6654929 L0.115735722,12.1001456 C0.0741868271,12.0596064 0.020766818,12.0306498 -7.62939453e-06,11.9698415 C0.0312038629,11.9249224 0.0692297377,11.8848916 0.112767941,11.8511196 C0.694452478,11.2719883 1.27811551,10.7025095 1.86375708,10.142683 C1.88749925,10.1166223 1.9142093,10.0934568 1.94091936,10.0673961 C2.00168388,10.0591426 2.02251298,10.0784978 2.04182382,10.0992485 L3.88778182,11.8974499 L3.95604075,11.9756326 L4.01836391,12.0451284 L4.35372311,12.3723372 L6.87039905,14.83654 C6.98911021,14.9523661 6.95646469,14.9552614 7.07517585,14.83654 C8.07531675,13.8607042 9.07842553,12.8877637 10.0755992,11.9061368 C10.7314781,11.2604062 11.3873577,10.614675 12.0521397,9.97473487 C12.8949888,9.16105612 13.7289342,8.34158572 14.5688153,7.52501115 L17.0765886,5.07818268 C17.1834275,4.97393911 17.1567178,4.97393911 17.263558,5.07818268 C18.4289055,6.21327941 19.5942531,7.35030663 20.7596006,8.48926421 C20.7863103,8.51242938 20.8100534,8.53849037 20.8337953,8.56165554 C20.8415863,8.56981113 20.8336723,8.59297639 20.8100534,8.63115133 L20.7506969,8.68616858 L18.9700301,10.4235614 L18.8928688,10.495953 C18.8695381,10.5037092 18.8240322,10.4766831 18.7563509,10.4148745 L17.2724617,8.96704729 L17.1893633,8.88596877 C17.1794124,8.87665336 17.1447883,8.89306209 17.085491,8.93519493 C16.1209635,9.8762831 15.1534681,10.8144749 14.1948752,11.7584583 C13.488544,12.4534157 12.776277,13.1425814 12.0669779,13.8375387 C11.559489,14.312426 11.0698049,14.8046876 10.58309,15.285366 L9.09920013,16.7331937 C9.06294879,16.7591345 9.03006226,16.7892768 9.00126356,16.8229592 L9.09029708,16.927202 Z" id="Shape" fill="#FFFFFF"></path>
        <path d="M14.0474777,15.3651632 C14.0617485,15.3473879 14.0776417,15.3309116 14.0949622,15.3159371 L16.0091791,13.4511353 C16.0091791,13.4511353 16.0091791,13.4511353 16.0299535,13.4511353 C16.0431086,13.4591765 16.0550884,13.468917 16.065567,13.4800918 L16.1338259,13.5437962 L19.7723218,17.0938691 C19.8128188,17.1308964 19.8495886,17.1716209 19.8821297,17.2154868 C19.8954932,17.2348575 19.9114643,17.2523886 19.9296141,17.2676081 L20.0631642,17.397913 L22.7638426,20.0329584 L22.8469404,20.1140371 C22.8575108,20.1220791 22.8696179,20.1279852 22.8825537,20.1314106 L22.9686194,20.0532279 L23.704628,19.3322105 L25.9512365,17.1401992 L26.0343336,17.0562253 C26.0551085,17.0359559 26.0551085,17.018582 26.0343336,16.9983125 C26.0111359,16.9718197 25.9863621,16.9466804 25.9601396,16.9230253 C25.4140687,16.3873292 24.8650292,15.8545287 24.3159904,15.3188327 L24.2358605,15.2348587 C24.2328807,15.2274107 24.2328807,15.2191413 24.2358605,15.2116933 L24.2506996,15.1943194 C24.2630309,15.1794023 24.2769595,15.1658122 24.2922481,15.1537804 C24.9016323,14.5572755 25.5110158,13.9627008 26.1203993,13.370057 C26.1417287,13.341218 26.1703602,13.3182706 26.2034976,13.3034568 L26.2391103,13.3295178 L26.3162728,13.4048048 L27.9604227,14.9945193 C27.9868912,15.0228135 28.0156739,15.0489608 28.0464884,15.0727021 L28.0672621,15.0727021 L28.0969402,15.0524322 C28.1236497,15.0292671 28.1473919,15.0032061 28.1711341,14.980041 L30.9282008,12.2783952 C30.9781392,12.2351718 31.0229373,12.1866056 31.0617509,12.1336124 C31.0790002,12.112929 31.0978519,12.0935678 31.1181385,12.0756993 C31.7295002,11.4830552 32.3388849,10.8884808 32.9462902,10.2919759 L33.0175169,10.2282715 C33.0292874,10.2323082 33.0403112,10.2381752 33.0501622,10.2456454 L33.1243562,10.3180368 L34.9050235,12.0554296 C34.9228299,12.0728035 34.9406362,12.0872819 34.9554753,12.1046558 C35.0148314,12.1625688 35.0148314,12.1625688 34.9554753,12.2233777 C34.8961203,12.2841863 34.8990876,12.2754994 34.8723781,12.304456 C30.9153399,16.1653291 26.9493986,20.0348891 22.9745546,23.9131358 C22.8558436,24.0289624 22.888489,24.0289624 22.7727458,23.9131358 L17.9975906,19.2482366 C17.9524919,19.1994193 17.9028125,19.1548253 17.8492018,19.1150357 C17.8284272,19.1150357 17.8106205,19.0773928 17.7898463,19.0600185 C17.1784839,18.463514 16.5661322,17.8660433 15.9527913,17.2676081 C15.8785969,17.1952173 15.8073703,17.1170346 15.7361435,17.0388514 C15.7034979,17.0069992 15.6738202,16.9693558 15.6382069,16.9375036 L14.1394789,15.4723022 C14.1127688,15.4491371 14.0890266,15.423076 14.0652844,15.399911 C14.0570423,15.3895973 14.0509889,15.3777847 14.0474777,15.3651632 Z" id="Shape" fill="#FFFFFF"></path>
        <path d="M27.8631744,8.8743862 C27.8273797,8.89871014 27.7953903,8.92797136 27.768205,8.96125568 L26.7947739,9.91103043 L24.9933322,11.6686926 C24.9430733,11.7110397 24.900002,11.7608828 24.8657179,11.816371 L24.8330722,11.8511191 L24.7559099,11.9235106 L21.1500591,15.4417311 L21.0639935,15.5228094 L21.031348,15.5372877 L20.9690245,15.485166 L19.1171308,13.6753817 C19.0990542,13.6600894 19.0830922,13.6425687 19.0696463,13.6232599 C19.0627017,13.6147967 19.0627017,13.6027666 19.0696463,13.5943033 C19.0928442,13.5678106 19.1176184,13.5426715 19.1438408,13.5190164 C20.837453,11.862702 22.5340333,10.2073526 24.233581,8.55296852 C24.8093299,7.97383748 25.4058534,7.39470645 25.9934733,6.81557557 L27.7563344,5.09555661 C27.7880529,5.06082576 27.8228074,5.02885303 27.860206,5 L27.8928517,5 L27.9611107,5.0637044 L31.6144465,8.63115115 L31.6648981,8.68037718 C31.7005121,8.71512522 31.7005121,8.7267078 31.6648981,8.7585598 L31.6292847,8.79041213 L29.7951977,10.5828227 L29.7328748,10.6349445 L29.709132,10.6349445 L29.6824224,10.6146747 L29.5963568,10.5335964 C29.0562208,10.0036914 28.513118,9.47668239 27.9700144,8.94677738 C27.943304,8.92071651 27.9165944,8.89175991 27.8869164,8.86569903 L27.8631744,8.8743862 Z" id="Shape" fill="#FFFFFF"></path>
        <path d="M11.5038605,8.59242543 L11.4504406,8.65033833 L9.53325618,10.4977665 L9.53325618,10.4977665 L9.53325618,10.4977665 C9.49876337,10.4719112 9.46695466,10.4428149 9.43828722,10.4108968 L7.9395597,8.9630691 L7.85052638,8.88488658 L7.82975185,8.88488658 C7.82305321,8.88244459 7.81567596,8.88244459 7.80897732,8.88488658 C7.78226714,8.91094742 7.75258959,8.93700826 7.72587964,8.96596472 L6.07282739,10.575949 C5.96598736,10.6801931 5.98972971,10.6801931 5.8858574,10.575949 C5.29230183,9.99681828 4.69182155,9.41093044 4.08441638,8.8182865 C4.06116016,8.79752653 4.03934811,8.7752773 4.01912527,8.75168642 C4.01170149,8.74230433 4.01170149,8.72921611 4.01912527,8.71983402 L4.04286749,8.69377318 C4.06957749,8.66771234 4.09628749,8.63875589 4.12596527,8.61269471 L7.719944,5.10316058 C7.86239722,4.96706478 7.8208486,4.96416912 7.96033378,5.10316058 L11.4118596,8.47370333 C11.4449362,8.51144334 11.4756587,8.55108882 11.5038605,8.59242543 L11.5038605,8.59242543 Z" id="Shape" fill="#FFFFFF"></path>
        <path d="M50.4039924,8.373 C50.6799938,8.373 50.8563253,8.49566544 50.9329924,8.741 L53.8999924,18.194 C53.9459926,18.3013339 54.0226585,18.355 54.1299924,18.355 L54.2219924,18.355 C54.3599931,18.355 54.436659,18.3013339 54.4519924,18.194 L57.5569924,9.477 C57.7103265,9.06299793 57.8904913,8.7755008 58.0974924,8.6145 C58.3044934,8.45349919 58.6149903,8.373 59.0289924,8.373 L61.7659924,8.373 C62.1799944,8.373 62.4904913,8.45349919 62.6974924,8.6145 C62.9044934,8.7755008 63.0846583,9.06299793 63.2379924,9.477 L66.3199924,18.194 C66.3353258,18.3013339 66.4119917,18.355 66.5499924,18.355 L66.6419924,18.355 C66.7493262,18.355 66.8259921,18.3013339 66.8719924,18.194 L69.8619924,8.741 C69.9079926,8.49566544 70.0843242,8.373 70.3909924,8.373 L72.9899924,8.373 C73.1893267,8.373 73.3158254,8.42283283 73.3694924,8.5225 C73.4231593,8.62216716 73.4269926,8.75633249 73.3809924,8.925 L69.8849924,19.574 C69.7009915,20.1566696 69.4824936,20.5399991 69.2294924,20.724 C68.9764911,20.9080009 68.6046615,21 68.1139924,21 L65.2159924,21 C64.8173237,21 64.5106601,20.896501 64.2959924,20.6895 C64.0813246,20.482499 63.8743267,20.1106693 63.6749924,19.574 L60.6389924,11.179 C60.6083256,11.0869995 60.5393262,11.041 60.4319924,11.041 L60.2939924,11.041 C60.1713251,11.041 60.1023258,11.0869995 60.0869924,11.179 L57.0739924,19.574 C56.874658,20.1106693 56.6676601,20.482499 56.4529924,20.6895 C56.2383246,20.896501 55.931661,21 55.5329924,21 L52.6349924,21 C52.1443233,21 51.7724936,20.9080009 51.5194924,20.724 C51.2664911,20.5399991 51.0479933,20.1566696 50.8639924,19.574 L47.4139924,8.925 C47.3679921,8.75633249 47.3679921,8.62216716 47.4139924,8.5225 C47.4599926,8.42283283 47.5903246,8.373 47.8049924,8.373 L50.4039924,8.373 Z M87.3419923,8.373 C88.3693307,8.373 89.2356554,8.46116578 89.9409923,8.6375 C90.6463291,8.81383421 91.2098235,9.08983145 91.6314923,9.4655 C92.053161,9.84116854 92.3559914,10.3241637 92.5399923,10.9145 C92.7239932,11.5048363 92.8159923,12.2139959 92.8159923,13.042 L92.8159923,16.354 C92.8159923,17.1820041 92.7239932,17.8911637 92.5399923,18.4815 C92.3559914,19.0718363 92.053161,19.5548315 91.6314923,19.9305 C91.2098235,20.3061685 90.6463291,20.5783325 89.9409923,20.747 C89.2356554,20.9156675 88.3693307,21 87.3419923,21 L80.8329923,21 C79.7903204,21 78.9201624,20.9156675 78.2224923,20.747 C77.5248221,20.5783325 76.965161,20.3061685 76.5434923,19.9305 C76.1218235,19.5548315 75.8189932,19.0718363 75.6349923,18.4815 C75.4509914,17.8911637 75.3589923,17.1820041 75.3589923,16.354 L75.3589923,13.042 C75.3589923,12.2139959 75.4509914,11.5048363 75.6349923,10.9145 C75.8189932,10.3241637 76.1218235,9.84116854 76.5434923,9.4655 C76.965161,9.08983145 77.5248221,8.81383421 78.2224923,8.6375 C78.9201624,8.46116578 79.7903204,8.373 80.8329923,8.373 L87.3419923,8.373 Z M78.6479923,15.779 C78.6479923,16.2696691 78.6863252,16.6759984 78.7629923,16.998 C78.8396593,17.3200016 78.9738246,17.5768324 79.1654923,17.7685 C79.3571599,17.9601676 79.6139907,18.0981662 79.9359923,18.1825 C80.2579939,18.2668338 80.6643232,18.309 81.1549923,18.309 L87.0199923,18.309 C87.5259948,18.309 87.9399907,18.2668338 88.2619923,18.1825 C88.5839939,18.0981662 88.8408246,17.9601676 89.0324923,17.7685 C89.2241599,17.5768324 89.3583252,17.3200016 89.4349923,16.998 C89.5116593,16.6759984 89.5499923,16.2696691 89.5499923,15.779 L89.5499923,13.594 C89.5499923,13.1186643 89.5116593,12.7200016 89.4349923,12.398 C89.3583252,12.0759984 89.2241599,11.8153343 89.0324923,11.616 C88.8408246,11.4166657 88.5839939,11.278667 88.2619923,11.202 C87.9399907,11.1253329 87.5259948,11.087 87.0199923,11.087 L81.1549923,11.087 C80.6643232,11.087 80.2579939,11.1253329 79.9359923,11.202 C79.6139907,11.278667 79.3571599,11.4166657 79.1654923,11.616 C78.9738246,11.8153343 78.8396593,12.0759984 78.7629923,12.398 C78.6863252,12.7200016 78.6479923,13.1186643 78.6479923,13.594 L78.6479923,15.779 Z M108.087992,8.373 C108.363994,8.373 108.501992,8.51099862 108.501992,8.787 L108.501992,10.719 C108.501992,10.9950014 108.363994,11.133 108.087992,11.133 L101.969992,11.133 C101.479323,11.133 101.072994,11.1751662 100.750992,11.2595 C100.428991,11.3438338 100.17216,11.4818324 99.9804922,11.6735 C99.7888245,11.8651676 99.6546592,12.1258317 99.5779922,12.4555 C99.5013251,12.7851683 99.4629922,13.1876643 99.4629922,13.663 L99.4629922,20.494 C99.4629922,20.831335 99.2943272,21 98.9569922,21 L96.7029922,21 C96.3503237,21 96.1739922,20.831335 96.1739922,20.494 L96.1739922,13.042 C96.1739922,12.2139959 96.2659913,11.5048363 96.4499922,10.9145 C96.6339931,10.3241637 96.9368234,9.84116854 97.3584922,9.4655 C97.7801609,9.08983145 98.339822,8.81383421 99.0374922,8.6375 C99.7351623,8.46116578 100.60532,8.373 101.647992,8.373 L108.087992,8.373 Z M113.768992,3.75 C114.106327,3.75 114.274992,3.91866498 114.274992,4.256 L114.274992,8.373 L122.899992,8.373 C123.927331,8.373 124.793655,8.46116578 125.498992,8.6375 C126.204329,8.81383421 126.767823,9.08983145 127.189492,9.4655 C127.611161,9.84116854 127.913991,10.3241637 128.097992,10.9145 C128.281993,11.5048363 128.373992,12.2139959 128.373992,13.042 L128.373992,16.354 C128.373992,17.1820041 128.281993,17.8911637 128.097992,18.4815 C127.913991,19.0718363 127.611161,19.5548315 127.189492,19.9305 C126.767823,20.3061685 126.204329,20.5783325 125.498992,20.747 C124.793655,20.9156675 123.927331,21 122.899992,21 L116.459992,21 C115.41732,21 114.547162,20.9156675 113.849492,20.747 C113.151822,20.5783325 112.592161,20.3061685 112.170492,19.9305 C111.748823,19.5548315 111.445993,19.0718363 111.261992,18.4815 C111.077991,17.8911637 110.985992,17.1820041 110.985992,16.354 L110.985992,4.256 C110.985992,3.91866498 111.162324,3.75 111.514992,3.75 L113.768992,3.75 Z M114.274992,11.133 L114.274992,15.71 C114.274992,16.2006691 114.313325,16.6069984 114.389992,16.929 C114.466659,17.2510016 114.600824,17.5078324 114.792492,17.6995 C114.98416,17.8911676 115.24099,18.0291662 115.562992,18.1135 C115.884994,18.1978338 116.291323,18.24 116.781992,18.24 L122.577992,18.24 C123.083995,18.24 123.49799,18.1978338 123.819992,18.1135 C124.141994,18.0291662 124.398824,17.8911676 124.590492,17.6995 C124.78216,17.5078324 124.916325,17.2510016 124.992992,16.929 C125.069659,16.6069984 125.107992,16.2006691 125.107992,15.71 L125.107992,13.663 C125.107992,13.1876643 125.069659,12.7851683 124.992992,12.4555 C124.916325,12.1258317 124.78216,11.8651676 124.590492,11.6735 C124.398824,11.4818324 124.141994,11.3438338 123.819992,11.2595 C123.49799,11.1751662 123.083995,11.133 122.577992,11.133 L114.274992,11.133 Z M134.583992,3.75 C134.921327,3.75 135.089992,3.91866498 135.089992,4.256 L135.089992,20.494 C135.089992,20.831335 134.921327,21 134.583992,21 L132.329992,21 C131.992657,21 131.823992,20.831335 131.823992,20.494 L131.823992,4.256 C131.823992,3.91866498 131.992657,3.75 132.329992,3.75 L134.583992,3.75 Z M141.506992,8.373 C141.844327,8.373 142.012992,8.54933157 142.012992,8.902 L142.012992,20.494 C142.012992,20.831335 141.844327,21 141.506992,21 L139.252992,21 C138.915657,21 138.746992,20.831335 138.746992,20.494 L138.746992,8.902 C138.746992,8.54933157 138.915657,8.373 139.252992,8.373 L141.506992,8.373 Z M141.506992,3.704 C141.844327,3.704 142.012992,3.87266498 142.012992,4.21 L142.012992,6.395 C142.012992,6.74766843 141.844327,6.924 141.506992,6.924 L139.252992,6.924 C138.900323,6.924 138.723992,6.74766843 138.723992,6.395 L138.723992,4.21 C138.723992,3.87266498 138.900323,3.704 139.252992,3.704 L141.506992,3.704 Z" id="worbli" fill="#FFFFFF" fill-rule="nonzero"></path>
        <g id="Rectangle-13" transform="translate(43.000023, 8.000015)" fill="#FFFFFF">
            <path d="M1,-6.66133815e-16 L7,-6.66133815e-16 C7.55228475,-7.67586877e-16 8,0.44771525 8,1 L8,2 C8,2.55228475 7.55228475,3 7,3 L1,3 C0.44771525,3 6.76353751e-17,2.55228475 0,2 L0,1 C-6.76353751e-17,0.44771525 0.44771525,-5.64680752e-16 1,-6.66133815e-16 Z" id="Rectangle-12"></path>
        </g>
    </g>
</svg>