<?xml version="1.0" encoding="UTF-8"?>
<svg width="15px" height="25px" viewBox="0 0 15 25" version="1.1" xmlns="http://www.w3.org/2000/svg" xmlns:xlink="http://www.w3.org/1999/xlink">
    <!-- Generator: Sketch 58 (84663) - https://sketch.com -->
    <title>noun_Arrow_1920908</title>
    <desc>Created with Sketch.</desc>
    <g id="Biz-Look" stroke="none" stroke-width="1" fill="none" fill-rule="evenodd" opacity="0.860000014">
        <g id="Home---Light" transform="translate(-1281.000000, -348.000000)" fill="#303742">
            <g id="noun_Arrow_1920908" transform="translate(1288.500000, 360.500000) rotate(-90.000000) translate(-1288.500000, -360.500000) translate(1276.000000, 353.000000)">
                <path d="M0.129419193,2.66379312 C0.129419193,1.99137932 0.388257574,1.34482762 0.880050479,0.82758622 C1.88952015,-0.181034481 3.54608586,-0.181034481 4.55555566,0.82758622 L12.4242421,8.66379312 L20.2929294,0.801724117 C21.3023981,-0.206896556 22.9589649,-0.206896556 23.9684336,0.801724117 C24.9779038,1.81034482 24.9779038,3.46551733 23.9684336,4.47413791 L14.2619943,14.1724135 C13.7702014,14.6637931 13.1231062,14.9224139 12.4242421,14.9224139 C11.7253788,14.9224139 11.0782829,14.6379311 10.58649,14.1724135 L0.880050479,4.49999991 C0.388257574,3.98275873 0.129419193,3.31034493 0.129419193,2.66379312 Z" id="Shape"></path>
            </g>
        </g>
    </g>
</svg>